<?xml version="1.0" encoding="utf-8"?>
<!-- Generator: Adobe Illustrator 16.0.0, SVG Export Plug-In . SVG Version: 6.00 Build 0)  -->
<!DOCTYPE svg PUBLIC "-//W3C//DTD SVG 1.1//EN" "http://www.w3.org/Graphics/SVG/1.1/DTD/svg11.dtd">
<svg version="1.1" id="Layer_1" xmlns="http://www.w3.org/2000/svg" xmlns:xlink="http://www.w3.org/1999/xlink" x="0px" y="0px"
	 width="66px" height="66px" viewBox="0 0 66 66" enable-background="new 0 0 66 66" xml:space="preserve">
<g>
	<g>
		<g>
			<g>
				<g>
					<g>
						<path fill="#E20544" d="M62.612,48.284c0,2.109-1.712,3.82-3.821,3.82H7.209c-2.109,0-3.821-1.711-3.821-3.82V17.716
							c0-2.109,1.712-3.82,3.821-3.82h51.582c2.109,0,3.821,1.711,3.821,3.82V48.284z"/>
						<path fill="#C40041" d="M3.388,17.716c0-2.109,1.712-3.82,3.821-3.82h51.582c2.109,0,3.821,1.711,3.821,3.82v30.568
							c0,2.109-1.712,3.82-3.821,3.82"/>
						<g>
							<path fill="#C40041" d="M58.791,12.507H7.209C4.336,12.507,2,14.845,2,17.716v30.568c0,2.871,2.336,5.209,5.209,5.209h51.582
								c2.873,0,5.209-2.338,5.209-5.209V17.716C64,14.845,61.664,12.507,58.791,12.507z M61.225,48.284
								c0,1.34-1.092,2.432-2.434,2.432H7.209c-1.342,0-2.434-1.092-2.434-2.432V17.716c0-1.34,1.092-2.432,2.434-2.432h51.582
								c1.342,0,2.434,1.092,2.434,2.432V48.284z"/>
						</g>
					</g>
				</g>
			</g>
		</g>
	</g>
	<g>
		<path fill="#C40041" d="M23.158,38.106c-0.285-1.238-0.756-2.201-1.406-2.883c1.312-0.955,2.08-2.436,2.08-4.133
			c0-1.5-0.553-2.814-1.551-3.693c-1.17-1.059-2.768-1.531-5.184-1.531c-1.5,0-3.021,0.131-4.078,0.346
			c-0.451,0.094-0.773,0.49-0.773,0.949v15.463c0,0.535,0.434,0.969,0.969,0.969h2.021c0.537,0,0.969-0.434,0.969-0.969v-5.822
			h0.901c1.235,0.047,1.817,0.375,2.231,2.291c0.549,2.424,0.859,3.514,1.154,4.018c0.174,0.299,0.49,0.482,0.838,0.482h2.092
			c0.342,0,0.656-0.18,0.83-0.473c0.178-0.291,0.184-0.654,0.023-0.955C23.977,41.61,23.502,39.581,23.158,38.106z M19.873,31.323
			c0,1.258-0.959,2.008-2.566,2.008h-1.102v-3.928c0.271-0.023,0.613-0.041,1.025-0.041C19.873,29.394,19.873,30.794,19.873,31.323z
			"/>
		<path fill="#C40041" d="M36.859,39.958h-5.82v-3.715h5.125c0.535,0,0.969-0.432,0.969-0.969v-1.672
			c0-0.535-0.434-0.969-0.969-0.969h-5.125v-3.016h5.473c0.535,0,0.969-0.434,0.969-0.969v-1.697c0-0.535-0.434-0.969-0.969-0.969
			h-8.463c-0.535,0-0.969,0.434-0.969,0.969v15.672c0,0.535,0.434,0.969,0.969,0.969h8.811c0.535,0,0.969-0.434,0.969-0.969v-1.697
			C37.828,40.392,37.395,39.958,36.859,39.958z"/>
		<path fill="#C40041" d="M53.281,40.263c-0.072-0.279-0.27-0.514-0.531-0.635c-0.266-0.123-0.568-0.119-0.829,0.008
			c-0.692,0.338-1.821,0.555-2.878,0.555c-3.213,0-5.054-1.945-5.054-5.334c0-3.439,1.925-5.494,5.146-5.494
			c1.39,0,2.312,0.346,2.739,0.555c0.256,0.123,0.555,0.129,0.814,0.014c0.261-0.115,0.457-0.34,0.537-0.611l0.488-1.652
			c0.133-0.443-0.07-0.918-0.48-1.133c-0.465-0.242-1.801-0.807-4.168-0.807c-5.389,0-9.154,3.783-9.154,9.199
			c0,5.406,3.418,8.898,8.711,8.898c1.805,0,3.516-0.318,4.572-0.848c0.41-0.203,0.619-0.668,0.504-1.109L53.281,40.263z"/>
	</g>
	<g>
		<path fill="#FFFFFF" d="M23.158,36.329c-0.285-1.236-0.756-2.199-1.406-2.881c1.312-0.957,2.08-2.434,2.08-4.133
			c0-1.5-0.553-2.816-1.551-3.695c-1.17-1.059-2.768-1.529-5.184-1.529c-1.5,0-3.021,0.129-4.078,0.346
			c-0.451,0.094-0.773,0.488-0.773,0.949v15.461c0,0.537,0.434,0.969,0.969,0.969h2.021c0.537,0,0.969-0.432,0.969-0.969v-5.818
			l0.901-0.002c1.235,0.047,1.817,0.373,2.231,2.293c0.549,2.424,0.859,3.512,1.154,4.014c0.174,0.299,0.49,0.482,0.838,0.482h2.092
			c0.342,0,0.656-0.178,0.83-0.471c0.178-0.293,0.184-0.656,0.023-0.955C23.977,39.833,23.502,37.808,23.158,36.329z M19.873,29.548
			c0,1.256-0.959,2.008-2.566,2.008h-1.102v-3.928c0.271-0.023,0.613-0.043,1.025-0.043C19.873,27.618,19.873,29.021,19.873,29.548z
			"/>
		<path fill="#FFFFFF" d="M36.859,38.181h-5.82V34.47h5.125c0.535,0,0.969-0.434,0.969-0.969v-1.676
			c0-0.535-0.434-0.969-0.969-0.969h-5.125v-3.014h5.473c0.535,0,0.969-0.434,0.969-0.969v-1.699c0-0.535-0.434-0.969-0.969-0.969
			h-8.463c-0.535,0-0.969,0.434-0.969,0.969v15.672c0,0.537,0.434,0.969,0.969,0.969h8.811c0.535,0,0.969-0.432,0.969-0.969v-1.697
			C37.828,38.614,37.395,38.181,36.859,38.181z"/>
		<path fill="#FFFFFF" d="M53.281,38.487c-0.072-0.281-0.27-0.514-0.531-0.635c-0.266-0.123-0.568-0.119-0.829,0.008
			c-0.692,0.336-1.821,0.555-2.878,0.555c-3.213,0-5.054-1.943-5.054-5.332c0-3.443,1.925-5.498,5.146-5.498
			c1.39,0,2.312,0.35,2.739,0.555c0.256,0.125,0.555,0.129,0.814,0.016c0.261-0.115,0.457-0.338,0.537-0.613l0.488-1.65
			c0.133-0.443-0.07-0.918-0.48-1.133c-0.465-0.242-1.801-0.809-4.168-0.809c-5.389,0-9.154,3.785-9.154,9.201
			c0,5.404,3.418,8.898,8.711,8.898c1.805,0,3.516-0.316,4.572-0.848c0.41-0.205,0.619-0.666,0.504-1.109L53.281,38.487z"/>
	</g>
</g>
</svg>
